<svg xmlns="http://www.w3.org/2000/svg" viewBox="0 0 64 64">
  <!-- Fundo verde WhatsApp -->
  <circle cx="32" cy="32" r="32" fill="#25D366"/>
  <!-- Balão de fala WhatsApp -->
  <path fill="#fff" d="M32 12c-11.046 0-20 8.954-20 20 0 3.78 1.05 7.314 2.876 10.328L12 52l9.86-2.812A19.9 19.9 0 0 0 32 52c11.046 0 20-8.954 20-20s-8.954-20-20-20z"/>
  <!-- Fone telefônico -->
  <path fill="#25D366" d="M23.94 22.16c-.45-.94-.93-.96-1.36-.97l-1.16-.02c-.4 0-1.06.15-1.61.76-.55.61-2.12 2.07-2.12 5.05 0 2.98 2.17 5.86 2.47 6.27.3.41 4.2 6.73 10.4 9.16 5.15 2.02 6.2 1.62 7.32 1.52 1.12-.1 3.6-1.47 4.11-2.89.5-1.42.5-2.64.36-2.89-.15-.25-.55-.4-1.16-.71-.6-.3-3.6-1.78-4.16-1.98-.55-.2-.96-.3-1.36.3-.4.61-1.56 1.98-1.92 2.39-.35.4-.71.46-1.31.15-.6-.3-2.56-.94-4.87-3-1.8-1.6-3.02-3.58-3.37-4.19-.35-.6-.04-.93.27-1.23.27-.27.6-.71.91-1.06.3-.36.4-.61.6-1.02.2-.4.1-.76-.05-1.07-.15-.3-1.31-3.26-1.84-4.46z"/>
</svg>
